<?xml version="1.0" encoding="UTF-8"?>
<svg id="Layer_2" data-name="Layer 2" xmlns="http://www.w3.org/2000/svg" viewBox="0 0 528.15 528.15">
  <defs>
    <style>
      .cls-1 { fill: #2cbf54; }
      .cls-1, .cls-2, .cls-3, .cls-4, .cls-5, .cls-6, .cls-7, .cls-8, .cls-9, .cls-10, .cls-11, .cls-12, .cls-13, .cls-14, .cls-15, .cls-16 { stroke-width: 0px; }
      .cls-2 { fill: #74dc53; }
      .cls-3 { fill: #31bd54; }
      .cls-4 { fill: #71dd53; }
      .cls-5 { fill: #43bc3c; opacity: .4; }
      .cls-6 { fill: #c8feb0; }
      .cls-7 { fill: #a7f466; }
      .cls-8 { fill: #feffff; }
      .cls-9 { fill: #6fde54; }
      .cls-10 { fill: #251e2e; }
      .cls-11 { fill: #29c055; }
      .cls-12 { fill: #50d24a; }
      .cls-13 { fill: #57d34d; }
      .cls-14 { fill: #1a1722; }
      .cls-15 { fill: #5ed650; }
      .cls-16 { fill: #261e2d; }
    </style>
  </defs>
  <g id="Layer_2-2" data-name="Layer 2">
    <path class="cls-12" d="m117.46,192.07c13.86,0,28.23,0,35.87,0,3.07,0,5.56,2.49,5.56,5.56v29.9c0,5.43-7.04,7.68-10.11,3.19-9.11-13.28-21.57-22.16-33.72-28.09-5.32-2.6-3.52-10.58,2.41-10.58Zm127.04,116.43c-53.33.75-74.85-31.43-82.25-47.49-1.7-3.69.99-7.9,5.05-7.9h6.9c3.07,0,5.56,2.49,5.56,5.56v10.78c0,3.07,2.49,5.56,5.56,5.56h13.39c3.07,0,5.56,2.49,5.56,5.56v10.26c0,3.07,2.49,5.56,5.56,5.56h65.19c3.02,0,5.49-2.41,5.56-5.42l.27-10.56c.08-3.02,2.54-5.42,5.56-5.42h10.32c4.24,0,6.95,4.58,4.87,8.27-14.65,26.06-57.11,25.23-57.11,25.23Zm117.14-127.68c-9.9-3.35-18.9-1.79-25.25.46-3.61,1.28-7.39-1.42-7.39-5.25v-.47c0-3.07,2.49-5.56,5.56-5.56h28.87c3.07,0,5.56,2.49,5.56,5.56h0c0,3.81-3.75,6.48-7.36,5.26Zm131.86,110.68c-1.46-4.43-6.32-5.24-8.92-1.37-4.69,6.98-12.08,11.99-20.42,14.24-15.9,4.29-33.83,2.81-48.82-4.27-48.65,109.1-218.07,132.25-218.07,132.25,17.23,5.02,36.08,8.48,56.37,9.37,0,0,93.89,5.68,179.99-59.68.9-.69,2-1.07,3.13-1.13,34.11-1.78,60.74-31.28,60.74-67.41,0-7.68-1.74-15.12-4-22Zm-115.55-38h5.47c3.07,0,5.56,2.49,5.56,5.56v10.87c0,3.07,2.49,5.56,5.56,5.56h13c3.07,0,5.56,2.49,5.56,5.56v9.78c0,3.07,2.49,5.56,5.56,5.56h53.83c3.07,0,5.56-2.49,5.56-5.56v-9.78c0-3.07,2.49-5.56,5.56-5.56h1.84c2.68,0,4.96-1.91,5.47-4.53,2.66-13.76,4.05-27.95,4.05-42.47,0-6.06-.24-12.06-.72-18-1.78-22.21-6.82-43.53-14.67-63.5C445.85,61.04,360.26,0,260,0,132.64,0,18.7,99.45,24.95,221.46c.06,1.2-.24,2.4-.91,3.4-15.82,23.36-22.25,63.55-2.54,85.64,14.69,16.47,49.2,22.74,67.99,11.01h.01c4.03-10.48,14.53-18.35,18.47-21.02.02-.01.03-.02.04-.03.16-.11.31-.2.45-.3.4-.26.7-.45.87-.56.03-.01.05-.03.07-.04.02-.02.04-.03.06-.03.03-.02.04-.03.04-.03,0,0-6.73,32.57,4.4,48.86.62.9,1.47,1.6,2.48,2.02,12.72,5.2,107.17,39.37,208.71-46.85.11-.09.21-.17.33-.26,2.16-1.54,25.67-18.55,48.11-47.59,1.06-1.37,2.69-2.19,4.42-2.19Z"/>
    <path class="cls-1" d="m490.02,275.5c-.28,1.29-.57,2.58-.87,3.87-2.68,12.58-12.82,21.72-24.99,25-15.9,4.29-33.83,2.81-48.82-4.27-11.04-5.2-20.49-13.43-26.36-24.6h24.13v20.91h64.96v-20.91h11.95Z"/>
    <path class="cls-7" d="m414.5,126.5s1.74-35.52-16-55C348.8,16.92,260.92,3.62,193.18,23.95c-58.75,17.63-111.01,59.02-137.61,114.78-4.5,9.44-8.26,19.23-11.2,29.26-.81,2.77-1.56,5.57-2.25,8.37-1.92,7.86-3.07,15.87-3.68,23.93-.44,5.76-.4,11.54-.7,17.31-.13,2.57,0,5.51-1.06,7.87s-2.65,4.25-3.93,6.39c-4.36,7.31-6.32,16.09-7.09,24.5-1.87,20.64,7.87,41.42,26.95,50.6,18.47,8.88,38.95,3.69,55.63-6.68.07-.04.14-.09.21-.13.4-.26.7-.45.87-.56.03-.01.05-.03.07-.04.02-.02.04-.03.06-.03.03-.02.04-.03.04-.03,0,0-8.56,39.26,4,55,0,0,109.76,46.89,219-46,0,0,25.3-21,46-53,6.22-9.62,10.35-21.42,16.28-32.73.15-.29.31-.58.46-.88,2.05-3.95,3.99-8.02,5.81-12.22,2.14-4.92,4.1-10.01,5.83-15.26.24-.71.47-1.43.7-2.15.92-2.89,1.76-5.82,2.53-8.8,1.31-5.02,2.4-10.18,3.23-15.46,1.09-6.79,1.76-13.8,1.94-21,.18-6.66-.06-13.5-.78-20.5Zm-170,182c-65.5.92-83.01-47.83-85.33-55.39h20.59v21.91h24.52v21.39h76.18l.54-21.41h24c-9.5,34.5-60.5,33.5-60.5,33.5Zm124.5-124.3c-17.93-10.49-34.43-2.76-40,.52v-14.72h40v14.2Zm-269.1,7.87h58.99v60.06c-12.45-42.25-46.22-56.02-65.43-60.06h6.44Z"/>
    <path class="cls-9" d="m387.5,59.5s52.52,38.5,54,89l-32-1s9-45-22-88Z"/>
    <polygon class="cls-14" points="369 147 369 170 329 170 329 253 305 253 305 275 281 275 280.46 296.41 204.28 296.41 204.28 275.02 179.76 275.02 179.76 253.11 158.89 253.11 158.89 192.07 63.93 192.07 63.93 168.59 49 168.59 49 147 369 147"/>
    <polygon class="cls-10" points="67.78 147 67.78 158.22 112.39 158.22 112.39 177.78 162.09 177.78 162.09 147 67.78 147"/>
    <polygon class="cls-10" points="322.5 147 322.5 184.5 300.5 184.5 300.5 211.5 282.5 211.83 282.5 229.5 184.78 229.63 184.78 190.89 201.41 190.89 201.41 147 322.5 147"/>
    <rect class="cls-8" x="184.78" y="168" width="52.43" height="24.26"/>
    <rect class="cls-8" x="184.78" y="209.67" width="19.37" height="23.09"/>
    <ellipse class="cls-6" cx="186.01" cy="67.52" rx="75.9" ry="35.35" transform="translate(-10.53 44.48) rotate(-13.27)"/>
    <ellipse class="cls-8" cx="165.36" cy="57.52" rx="38.24" ry="19.62" transform="translate(-9.54 49.62) rotate(-16.59)"/>
    <ellipse class="cls-8" cx="215.38" cy="71.82" rx="12.79" ry="7.05" transform="translate(-11.6 76.9) rotate(-19.72)"/>
    <path class="cls-13" d="m305,275c-7.5,35.5-60.5,33.5-60.5,33.5-65.5.92-83.01-47.83-85.33-55.39h20.59v21.91h24.52v21.39h76.18l.54-21.41h24Z"/>
    <path class="cls-15" d="m99.9,192.07c14.03,2.82,48.99,11.47,58.99,29.15v30.91c-12.45-42.25-46.22-56.02-65.43-60.06h6.44Z"/>
    <path class="cls-4" d="m415.34,300.1c-48.65,109.1-218.07,132.25-218.07,132.25-75.23-21.93-125.77-91.85-125.77-91.85,0,0,3,2,14-11,0,0,8-22,22.47-29.01.02-.01.03-.02.04-.03.16-.11.31-.2.45-.3.4-.26.7-.45.87-.56.03-.01.05-.03.07-.04.02-.02.04-.03.06-.03.03-.02.04-.03.04-.03,0,0-5,34,5.43,50.26,2.19,3.41,6.35,4.25,10,5.16,15.53,3.87,32.05,5.18,48.02,5.68,14.25.45,28.55-.32,42.66-2.37,14.07-2.04,27.95-5.35,41.42-9.92s26.92-10.57,39.5-17.66c1.73-.97,3.45-1.97,5.15-2.99,10.48-6.25,20.47-13.33,29.82-21.18,17.24-14.48,32-33,43.7-53h13.78v22c5.87,11.17,15.32,19.4,26.36,24.6Z"/>
    <path class="cls-1" d="m158.89,192.07l-.39,31.43c-10-17.68-44.57-28.61-58.6-31.43h58.99Z"/>
    <path class="cls-3" d="m369,170v14.2c-17.93-10.49-34.43-2.76-40,.52v-14.72h40Z"/>
    <path class="cls-1" d="m478.07,296.41s5.43,31.09-43.05,84.57c.78-.86,7.12-.7,8.33-.91,6.68-1.16,13.23-3.19,19.33-6.16,15.9-7.74,26.82-22.38,32.23-39.02,6.03-18.53,2.93-38.34-5.76-55.52l-11.08,17.04Z"/>
    <path class="cls-11" d="m367.5,419.63s74-30.13,106-119.13l10.38-9.36s-5.38,62.36-42.38,86.36l-6.48,3.48s-41.53,46.78-67.52,38.65Z"/>
    <path class="cls-11" d="m74.5,336.5s49,75,148,95c0,0,133,32,212-62l13,4s-55,81-193,79c0,0-119,0-189-113l9-3Z"/>
    <polygon class="cls-14" points="528.15 147 528.15 253.5 505.46 253.5 505.46 275.5 478.07 275.5 478.07 296.41 413.11 296.41 413.11 275.5 388.98 275.5 388.98 253.5 369 253.5 369 147 528.15 147"/>
    <polygon class="cls-10" points="410.11 147 410.11 194.41 395.24 194.41 395.24 232.76 480.02 232.76 480.5 210.5 498.5 210.5 498 184.24 520.5 184.5 520.5 147 410.11 147"/>
    <rect class="cls-8" x="394.78" y="168" width="52.43" height="24.26"/>
    <rect class="cls-8" x="394.78" y="209.67" width="19.37" height="23.09"/>
    <g>
      <polygon class="cls-14" points="391 279 390.67 302.2 367.59 302.2 367.59 279 391 279"/>
      <polygon class="cls-14" points="328.26 279 328.26 302.39 303.5 302.39 304 279 328.26 279"/>
      <polygon class="cls-14" points="367.59 302.2 367.59 324.89 328.26 324.89 328.26 302.39 367.59 302.2"/>
      <polygon class="cls-16" points="367.59 279 367.59 302.2 328.26 302.39 328.26 279 367.59 279"/>
    </g>
    <path class="cls-2" d="m36.69,225.48s-28.28,35.88,2.77,71.95c0,0,25.06,29.99,68.55,3.03,0,0-18.77,41.52-66.14,22.28,0,0-31.51-8.75-30.94-55.99,0,0-.05-28.28,25.76-41.26Z"/>
    <path class="cls-5" d="m50.65,321.01c-.91,1.19-1.96,2.38-3.15,3.49,0,0,21,9,41-3,0,0-1,8-13,17,0,0,10.49,14.57,16,19,6,5,12-26.56,16.52-47.44.8-3.69,1.33-7.26,1.48-10.56,0,0-16.5,12.54-37.71,11.88-8.19-.25-16.16,3.11-21.14,9.62Z"/>
    <path class="cls-11" d="m89.49,321.51c-.69.34-1.92,4.54-2.34,5.3-2.3,4.13-5.53,7.77-9.24,10.68-17.2,13.49-39.43,6.93-54.59-6.35S0,297.98,0,278c0-22.38,9.85-42.23,25.06-54.61-18.56,32.11-19.69,65.55.44,88.11,14.69,16.47,44,20,63.99,10.01Z"/>
  </g>
</svg>
